<svg width="18" height="18" viewBox="0 0 18 18" fill="none" xmlns="http://www.w3.org/2000/svg">
<path d="M10.35 1.7652C10.35 1.2044 9.8956 0.75 9.3348 0.75H8.166C7.6044 0.75 7.15 1.2044 7.15 1.7652C7.15 2.2276 6.8332 2.6244 6.402 2.794C6.33373 2.82173 6.26627 2.85 6.1996 2.8788C5.7748 3.0628 5.27 3.0068 4.942 2.6796C4.75153 2.48956 4.49346 2.38284 4.2244 2.38284C3.95534 2.38284 3.69727 2.48956 3.5068 2.6796L2.6796 3.5068C2.48956 3.69727 2.38284 3.95534 2.38284 4.2244C2.38284 4.49346 2.48956 4.75153 2.6796 4.942C3.0076 5.27 3.0636 5.774 2.878 6.1996C2.84885 6.26658 2.82084 6.33406 2.794 6.402C2.6244 6.8332 2.2276 7.15 1.7652 7.15C1.2044 7.15 0.75 7.6044 0.75 8.1652V9.3348C0.75 9.8956 1.2044 10.35 1.7652 10.35C2.2276 10.35 2.6244 10.6668 2.794 11.098C2.82173 11.1663 2.84973 11.2337 2.878 11.3004C3.0628 11.7252 3.0068 12.23 2.6796 12.558C2.48956 12.7485 2.38284 13.0065 2.38284 13.2756C2.38284 13.5447 2.48956 13.8027 2.6796 13.9932L3.5068 14.8204C3.69727 15.0104 3.95534 15.1172 4.2244 15.1172C4.49346 15.1172 4.75153 15.0104 4.942 14.8204C5.27 14.4924 5.774 14.4364 6.1996 14.6212C6.26627 14.6505 6.33373 14.6788 6.402 14.706C6.8332 14.8756 7.15 15.2724 7.15 15.7348C7.15 16.2956 7.6044 16.75 8.1652 16.75H9.3348C9.8956 16.75 10.35 16.2956 10.35 15.7348C10.35 15.2724 10.6668 14.8756 11.098 14.7052C11.1663 14.6785 11.2337 14.6508 11.3004 14.622C11.7252 14.4364 12.23 14.4932 12.5572 14.8204C12.7477 15.0107 13.0059 15.1176 13.2752 15.1176C13.5445 15.1176 13.8027 15.0107 13.9932 14.8204L14.8204 13.9932C15.0104 13.8027 15.1172 13.5447 15.1172 13.2756C15.1172 13.0065 15.0104 12.7485 14.8204 12.558C14.4924 12.23 14.4364 11.726 14.6212 11.3004C14.6505 11.2337 14.6788 11.1663 14.706 11.098C14.8756 10.6668 15.2724 10.35 15.7348 10.35C16.2956 10.35 16.75 9.8956 16.75 9.3348V8.166C16.75 7.6052 16.2956 7.1508 15.7348 7.1508C15.2724 7.1508 14.8756 6.834 14.7052 6.4028C14.6784 6.33486 14.6504 6.26738 14.6212 6.2004C14.4372 5.7756 14.4932 5.2708 14.8204 4.9428C15.0104 4.75233 15.1172 4.49426 15.1172 4.2252C15.1172 3.95614 15.0104 3.69807 14.8204 3.5076L13.9932 2.6804C13.8027 2.49036 13.5447 2.38364 13.2756 2.38364C13.0065 2.38364 12.7485 2.49036 12.558 2.6804C12.23 3.0084 11.726 3.0644 11.3004 2.8796C11.2334 2.85018 11.1659 2.82191 11.098 2.7948C10.6668 2.6244 10.35 2.2268 10.35 1.7652Z" stroke="#D45B00" stroke-width="1.5"/>
<path d="M11.95 8.7498C11.95 9.5985 11.6129 10.4124 11.0128 11.0125C10.4127 11.6127 9.59874 11.9498 8.75005 11.9498C7.90136 11.9498 7.08742 11.6127 6.48731 11.0125C5.88719 10.4124 5.55005 9.5985 5.55005 8.7498C5.55005 7.90111 5.88719 7.08718 6.48731 6.48706C7.08742 5.88695 7.90136 5.5498 8.75005 5.5498C9.59874 5.5498 10.4127 5.88695 11.0128 6.48706C11.6129 7.08718 11.95 7.90111 11.95 8.7498Z" stroke="#D45B00" stroke-width="1.5"/>
</svg>
